HIERARCHY
ROOT Hips
{
	OFFSET 0.000000 0.000000 0.000000
	CHANNELS 6 Xposition Yposition Zposition Zrotation Yrotation Xrotation 
	JOINT LHipJoint
	{
		OFFSET 0.000000 0.000000 0.000000
		CHANNELS 3 Zrotation Yrotation Xrotation
		JOINT LeftUpLeg
		{
			OFFSET 1.363060 -1.794630 0.839290
			CHANNELS 3 Zrotation Yrotation Xrotation
			JOINT LeftLeg
			{
				OFFSET 2.448110 -6.726130 0.000000
				CHANNELS 3 Zrotation Yrotation Xrotation
				JOINT LeftFoot
				{
					OFFSET 2.562200 -7.039590 0.000000
					CHANNELS 3 Zrotation Yrotation Xrotation
					JOINT LeftToeBase
					{
						OFFSET 0.157640 -0.433110 2.322550
						CHANNELS 3 Zrotation Yrotation Xrotation
						End Site
						{
							OFFSET 0.000000 0.000000 0.000000
						}
					}
				}
			}
		}
	}
	JOINT RHipJoint
	{
		OFFSET 0.000000 0.000000 0.000000
		CHANNELS 3 Zrotation Yrotation Xrotation
		JOINT RightUpLeg
		{
			OFFSET -1.305520 -1.794630 0.839290
			CHANNELS 3 Zrotation Yrotation Xrotation
			JOINT RightLeg
			{
				OFFSET -2.542530 -6.985550 0.000000
				CHANNELS 3 Zrotation Yrotation Xrotation
				JOINT RightFoot
				{
					OFFSET -2.568260 -7.056230 0.000000
					CHANNELS 3 Zrotation Yrotation Xrotation
					JOINT RightToeBase
					{
						OFFSET -0.164730 -0.452590 2.363150
						CHANNELS 3 Zrotation Yrotation Xrotation
						End Site
						{
							OFFSET 0.000000 0.000000 0.000000
						}
					}
				}
			}
		}
	}
	JOINT LowerBack
	{
		OFFSET 0.000000 0.000000 0.000000
		CHANNELS 3 Zrotation Yrotation Xrotation
		JOINT Spine
		{
			OFFSET 0.028270 2.035590 -0.193380
			CHANNELS 3 Zrotation Yrotation Xrotation
			JOINT Spine1
			{
				OFFSET 0.056720 2.048850 -0.042750
				CHANNELS 3 Zrotation Yrotation Xrotation
				JOINT Neck
				{
					OFFSET 0.000000 0.000000 0.000000
					CHANNELS 3 Zrotation Yrotation Xrotation
					JOINT Neck1
					{
						OFFSET -0.054170 1.746240 0.172020
						CHANNELS 3 Zrotation Yrotation Xrotation
						JOINT Head
						{
							OFFSET 0.104070 1.761360 -0.123970
							CHANNELS 3 Zrotation Yrotation Xrotation
							End Site
							{
								OFFSET 0.000000 0.000000 0.000000
							}
						}
					}
				}
				JOINT LeftShoulder
				{
					OFFSET 0.000000 0.000000 0.000000
					CHANNELS 3 Zrotation Yrotation Xrotation
					JOINT LeftArm
					{
						OFFSET 3.362410 1.200890 -0.311210
						CHANNELS 3 Zrotation Yrotation Xrotation
						JOINT LeftForeArm
						{
							OFFSET 4.983000 -0.000000 -0.000000
							CHANNELS 3 Zrotation Yrotation Xrotation
							JOINT LeftHand
							{
								OFFSET 3.483560 -0.000000 -0.000000
								CHANNELS 3 Zrotation Yrotation Xrotation
								JOINT LeftFingerBase
								{
									OFFSET 0.000000 0.000000 0.000000
									CHANNELS 3 Zrotation Yrotation Xrotation
									JOINT LeftHandIndex1
									{
										OFFSET 0.715260 -0.000000 -0.000000
										CHANNELS 3 Zrotation Yrotation Xrotation
										End Site
										{
											OFFSET 0.000000 0.000000 0.000000
										}
									}
								}
								JOINT LThumb
								{
									OFFSET 0.000000 0.000000 0.000000
									CHANNELS 3 Zrotation Yrotation Xrotation
									End Site
									{
										OFFSET 0.000000 0.000000 0.000000
									}
								}
							}
						}
					}
				}
				JOINT RightShoulder
				{
					OFFSET 0.000000 0.000000 0.000000
					CHANNELS 3 Zrotation Yrotation Xrotation
					JOINT RightArm
					{
						OFFSET -3.136600 1.374050 -0.404650
						CHANNELS 3 Zrotation Yrotation Xrotation
						JOINT RightForeArm
						{
							OFFSET -5.241900 -0.000000 -0.000000
							CHANNELS 3 Zrotation Yrotation Xrotation
							JOINT RightHand
							{
								OFFSET -3.444170 -0.000000 -0.000000
								CHANNELS 3 Zrotation Yrotation Xrotation
								JOINT RightFingerBase
								{
									OFFSET 0.000000 0.000000 0.000000
									CHANNELS 3 Zrotation Yrotation Xrotation
									JOINT RightHandIndex1
									{
										OFFSET -0.622530 -0.000000 -0.000000
										CHANNELS 3 Zrotation Yrotation Xrotation
										End Site
										{
											OFFSET 0.000000 0.000000 0.000000
										}
									}
								}
								JOINT RThumb
								{
									OFFSET 0.000000 0.000000 0.000000
									CHANNELS 3 Zrotation Yrotation Xrotation
									End Site
									{
										OFFSET 0.000000 0.000000 0.000000
									}
								}
							}
						}
					}
				}
			}
		}
	}
}
MOTION
Frames: 11
Frame Time: 0.008333
0.032650 17.967775 -4.117565 0.448545 -12.130079 19.001744 -0.713286 0.828461 0.289043 -18.392782 -5.962474 -34.527035 -0.270056 7.133993 20.486771 -0.470224 3.981107 5.669911 0.104900 -2.088500 -5.750300 0.005033 -1.828834 1.179145 14.091647 6.435980 -28.687784 -2.299521 -10.374658 31.686631 -0.268220 -1.740104 -11.055427 -0.000600 0.152800 -0.419800 -4.373231 1.017574 7.913945 0.504611 0.627877 1.614861 3.852497 0.754917 -1.673288 -12.977359 -8.887220 -10.574943 10.457280 -9.204085 1.519314 4.861400 -4.453400 6.763200 -10.432831 -0.081465 -1.876907 -75.596081 -0.737779 57.828041 20.900683 -34.346378 -7.349787 0.108130 -1.348831 0.025235 17.782206 21.210360 6.997000 -7.125000 0.000000 0.000000 -11.750100 53.236500 -2.406800 9.014429 2.442852 -1.100899 76.165613 3.684745 52.393275 -21.440039 29.076982 -6.516614 0.565491 -0.968751 30.280693 -29.857141 3.286190 -2.315900 7.125000 0.000000 0.000000 -3.170700 -25.457300 -1.502100 
-0.000901 17.962868 -4.149514 0.381710 -12.048482 19.147051 -0.703793 0.816478 0.269947 -18.059367 -6.210276 -34.658696 -0.273003 7.140183 20.451808 -0.510873 4.223698 5.727079 0.107500 -2.114400 -5.821900 0.027973 -1.825968 1.183750 14.269094 6.698682 -28.528191 -2.188083 -10.202081 31.156955 -0.265191 -1.860899 -11.364537 -0.000200 -0.091600 0.251600 -4.276721 1.022645 8.017233 0.540557 0.638831 1.592740 3.837390 0.764795 -1.756833 -12.945898 -8.828550 -10.586601 10.467537 -9.116889 1.379460 4.870600 -4.410300 6.714800 -10.431966 -0.081249 -1.881137 -75.611852 -0.767850 57.838563 20.917319 -34.355206 -7.338591 0.038747 -1.334257 -0.073460 20.082620 20.241604 7.676400 -7.125000 0.000000 0.000000 -8.993100 52.678400 -1.710400 9.016659 2.445537 -1.103616 76.188234 3.634840 52.559424 -21.402855 29.031992 -6.491214 0.563367 -0.958288 30.088706 -29.608661 3.261772 -2.274500 7.125000 0.000000 0.000000 -2.978800 -25.504600 -1.407700 
-0.035555 17.962768 -4.184268 0.405764 -11.900174 19.288361 -0.696984 0.803040 0.253288 -17.866456 -6.373023 -34.805196 -0.293859 7.104176 20.307203 -0.518011 4.312670 5.923186 0.116400 -2.199600 -6.057600 0.044501 -1.821111 1.185505 14.385156 6.895468 -28.436763 -2.104396 -10.073085 30.758603 -0.281924 -1.918667 -11.754909 -0.007800 -0.568800 1.563100 -4.271328 0.993744 8.087371 0.588553 0.599280 1.587087 3.897020 0.747608 -1.793524 -12.917443 -8.758244 -10.748541 10.438053 -9.005275 1.333880 4.866800 -4.352800 6.712500 -10.430990 -0.085454 -1.880482 -75.626470 -0.874964 57.955553 20.924658 -34.360570 -7.343344 0.064065 -1.345953 -0.267240 19.392930 20.921651 7.606200 -7.125000 0.000000 0.000000 -9.967200 53.253300 -2.039400 9.025338 2.446125 -1.105070 76.156420 3.720018 52.843616 -21.327642 28.938106 -6.439684 0.563100 -0.935969 29.761866 -29.136883 3.101511 -2.129000 7.125000 0.000000 0.000000 -2.622200 -25.729900 -1.225000 
-0.068105 17.964971 -4.214114 0.354968 -11.758343 19.429484 -0.690021 0.791421 0.236406 -17.554145 -6.623973 -34.893107 -0.308997 7.077131 20.186562 -0.547839 4.505244 6.027781 0.115500 -2.191500 -6.035300 0.061938 -1.818681 1.190231 14.616109 6.967317 -28.372332 -2.024423 -9.948408 30.378193 -0.272136 -2.063945 -12.023652 -0.010800 -0.669900 1.841000 -4.161424 0.996481 8.081143 0.641528 0.612505 1.586084 3.897709 0.756385 -1.788045 -12.838676 -8.676443 -10.724616 10.338947 -8.904554 1.162484 4.839300 -4.310000 6.638500 -10.431381 -0.091880 -1.879471 -75.692940 -0.897773 57.966119 20.880565 -34.311097 -7.319688 0.066510 -1.343712 0.032519 19.160724 20.869575 7.487400 -7.125000 0.000000 0.000000 -10.188600 53.152600 -2.060300 9.030115 2.439649 -1.109245 76.140530 3.719811 52.960225 -21.271561 28.874589 -6.406992 0.557976 -0.931754 29.845661 -28.969886 3.063558 -2.090800 7.125000 0.000000 0.000000 -2.493900 -25.784400 -1.161800 
-0.099153 17.963168 -4.242759 0.299762 -11.695329 19.581354 -0.686962 0.783012 0.217840 -17.150447 -7.082398 -34.879191 -0.323545 7.039880 20.032510 -0.646035 5.037673 6.063562 0.104600 -2.085300 -5.741300 0.076568 -1.816233 1.192174 14.840098 7.049429 -28.371807 -1.957632 -9.846767 30.063513 -0.255825 -2.223548 -12.242837 -0.007400 -0.556200 1.528300 -4.035604 1.020480 8.028733 0.665554 0.655532 1.614333 3.853149 0.778562 -1.723839 -12.615329 -8.575400 -10.773957 10.083560 -8.802896 0.931340 4.741800 -4.269600 6.544800 -10.430768 -0.112615 -1.876856 -75.725967 -0.951591 57.923505 20.874238 -34.300719 -7.312485 0.038463 -1.331704 0.204735 19.957785 20.194346 7.605800 -7.125000 0.000000 0.000000 -9.106100 52.603100 -1.715400 9.036134 2.419118 -1.117589 76.159856 3.746815 53.043576 -21.162396 28.756084 -6.351353 0.554495 -0.942975 30.214680 -29.075678 3.055394 -2.099200 7.125000 0.000000 0.000000 -2.578500 -25.781800 -1.201500 
-0.129901 17.960164 -4.274207 0.346458 -11.634529 19.713828 -0.684366 0.777259 0.199099 -16.807716 -7.657620 -34.852719 -0.333343 7.008657 19.901500 -0.754110 5.606812 6.058364 0.109700 -2.135700 -5.880700 0.086203 -1.810072 1.190651 14.973761 7.100002 -28.431145 -1.894300 -9.755470 29.768967 -0.219873 -2.481885 -12.467094 -0.006300 -0.514300 1.413300 -3.983945 1.030940 8.010507 0.666664 0.674982 1.649859 3.823427 0.785736 -1.664607 -12.553941 -8.536015 -10.874736 10.060263 -8.733062 0.705292 4.732500 -4.233500 6.486100 -10.432587 -0.118395 -1.875035 -75.738995 -1.083138 58.010813 20.867823 -34.290836 -7.310235 0.058389 -1.339553 -0.010734 19.408624 20.616778 7.512900 -7.125000 0.000000 0.000000 -9.831300 52.938800 -1.935200 9.046164 2.419045 -1.116364 76.144531 3.894599 53.270805 -20.994324 28.564834 -6.260585 0.555601 -0.947502 30.225935 -29.055005 3.046740 -2.094700 7.125000 0.000000 0.000000 -2.565600 -25.788500 -1.195100 
-0.165756 17.960063 -4.305656 0.328573 -11.602160 19.793318 -0.677713 0.767994 0.185838 -16.545281 -7.817513 -34.920732 -0.344850 6.985951 19.800015 -0.781652 5.787984 6.193011 0.126200 -2.290000 -6.307700 0.098491 -1.805700 1.189982 15.182800 7.171509 -28.422336 -1.837962 -9.667425 29.501742 -0.206926 -2.640703 -12.724517 -0.011300 -0.685400 1.883600 -3.932024 1.074568 8.028672 0.670386 0.736806 1.702710 3.793075 0.814233 -1.611812 -12.436660 -8.482597 -10.990000 10.016018 -8.661972 0.551894 4.707700 -4.195200 6.445900 -10.432813 -0.127009 -1.871710 -75.717015 -1.210824 58.075682 20.864767 -34.285963 -7.312367 0.085984 -1.348552 -0.120388 18.578801 21.169122 7.330400 -7.125000 0.000000 0.000000 -10.910300 53.348900 -2.261500 9.054612 2.416352 -1.116200 76.170557 4.034131 53.530222 -20.875707 28.425188 -6.193689 0.558268 -0.944551 30.065334 -28.943009 3.009646 -2.063100 7.125000 0.000000 0.000000 -2.482600 -25.837700 -1.153500 
-0.200410 17.961566 -4.334300 0.300798 -11.603287 19.803327 -0.677795 0.763870 0.179967 -16.322890 -7.854407 -34.930939 -0.356932 6.960864 19.703454 -0.795840 5.890401 6.299403 0.130700 -2.329900 -6.418300 0.112541 -1.805808 1.193345 15.402668 7.196061 -28.343845 -1.787620 -9.583342 29.255601 -0.216693 -2.683871 -12.963633 -0.017000 -0.842100 2.314500 -3.909474 1.111901 8.139929 0.712260 0.785631 1.728387 3.825058 0.839220 -1.645568 -12.367657 -8.404468 -11.007085 9.935644 -8.556540 0.342896 4.686500 -4.147900 6.370600 -10.432652 -0.132263 -1.872063 -75.767119 -1.256611 58.082716 20.851489 -34.269137 -7.304359 0.088671 -1.349281 -0.191486 18.511727 21.204165 7.312500 -7.125000 0.000000 0.000000 -10.993100 53.372200 -2.285300 9.058952 2.409392 -1.118691 76.084700 3.986413 53.848783 -20.841961 28.392767 -6.177919 0.558510 -0.952559 30.070894 -29.078268 3.110901 -2.137200 7.125000 0.000000 0.000000 -2.582300 -25.706900 -1.207800 
-0.232359 17.961365 -4.364347 0.299869 -11.603040 19.801431 -0.679836 0.763589 0.173407 -16.056902 -8.076347 -34.884490 -0.363137 6.942660 19.626659 -0.843503 6.145708 6.327649 0.131000 -2.333000 -6.426800 0.125169 -1.805425 1.196835 15.573518 7.215843 -28.278056 -1.737927 -9.499629 29.006443 -0.236100 -2.657567 -13.139602 -0.032800 -1.168700 3.213100 -3.858439 1.156886 8.331590 0.732244 0.844222 1.719584 3.807453 0.871910 -1.769037 -12.361727 -8.352751 -11.047001 9.928005 -8.474471 0.235132 4.692200 -4.108000 6.337800 -10.434420 -0.130693 -1.873162 -75.797774 -1.277654 58.230453 20.770956 -34.179323 -7.256327 0.083428 -1.345943 -0.266963 18.630809 20.929923 7.280800 -7.125000 0.000000 0.000000 -10.754200 53.114800 -2.166700 9.058804 2.408121 -1.121136 75.990408 3.863914 53.993455 -20.874779 28.443169 -6.201113 0.539154 -0.965773 30.460672 -29.146866 3.390259 -2.312300 7.125000 0.000000 0.000000 -2.613300 -25.365300 -1.243100 
-0.265711 17.962267 -4.398099 0.234707 -11.614881 19.845433 -0.680418 0.763563 0.162039 -15.615913 -8.503996 -34.794798 -0.364157 6.930750 19.553399 -0.949639 6.671530 6.234214 0.139600 -2.408200 -6.635300 0.139266 -1.804642 1.198026 15.776192 7.365589 -28.214356 -1.690481 -9.418481 28.770378 -0.251619 -2.681391 -13.394670 -0.062800 -1.617300 4.449100 -3.765255 1.223291 8.467041 0.759777 0.936868 1.713713 3.772973 0.920889 -1.860873 -12.331374 -8.304075 -11.210617 9.923305 -8.397851 0.260172 4.690000 -4.065000 6.362100 -10.432535 -0.130582 -1.873512 -75.814398 -1.291356 58.379017 20.747589 -34.153253 -7.243353 0.084878 -1.344585 -0.355997 18.587247 20.811128 7.226100 -7.125000 0.000000 0.000000 -10.749000 52.985000 -2.131300 9.060366 2.406896 -1.124596 75.913866 3.822653 53.901089 -20.927986 28.512826 -6.229098 0.493127 -0.960824 31.294866 -28.622484 3.593717 -2.377500 7.125000 0.000000 0.000000 -2.182800 -25.153800 -1.048700 
-0.302267 17.962768 -4.432151 0.197590 -11.614284 19.877733 -0.683323 0.764030 0.151233 -15.192763 -8.960506 -34.681225 -0.364628 6.917137 19.480605 -1.063353 7.212217 6.074868 0.155600 -2.541700 -7.005400 0.152611 -1.805648 1.198336 15.943568 7.567456 -28.138642 -1.647308 -9.345953 28.560143 -0.243352 -2.828332 -13.667619 -0.081700 -1.844000 5.074800 -3.741172 1.264653 8.540755 0.800141 0.992410 1.740228 3.800991 0.949137 -1.872988 -12.222361 -8.235971 -11.468504 9.799081 -8.308449 0.280910 4.639500 -4.018100 6.388500 -10.431082 -0.143633 -1.869959 -75.875628 -1.419195 58.425066 20.698523 -34.094743 -7.211874 0.084999 -1.346082 -0.453633 18.603246 20.868247 7.251600 -7.125000 0.000000 0.000000 -10.754300 53.047700 -2.148900 9.070108 2.397682 -1.127737 75.830656 3.925018 54.022125 -20.871296 28.450820 -6.195936 0.466648 -0.954449 31.772117 -28.208139 3.647735 -2.365200 7.125000 0.000000 0.000000 -1.853200 -25.113400 -0.892000 
